<?xml version="1.0" encoding="utf-8"?>
<!-- Generator: Adobe Illustrator 19.1.0, SVG Export Plug-In . SVG Version: 6.00 Build 0)  -->
<svg version="1.1" id="Layer_1" xmlns="http://www.w3.org/2000/svg" xmlns:xlink="http://www.w3.org/1999/xlink" x="0px" y="0px"
	 viewBox="0 0 500 500" style="enable-background:new 0 0 500 500;" xml:space="preserve">
<style type="text/css">
	.st0{fill:none;stroke:#FFFFFF;stroke-width:4;stroke-linecap:round;stroke-miterlimit:10;}
	.st1{fill:#FFFFFF;}
</style>
<path class="st0" d="M390,386.5c52.1,0,94.3-42.2,94.3-94.3c0-42.3-27.8-78.1-66.2-90c-9.7-26.6-35.1-45.5-65-45.5
	c-5.2,0-10.2,0.6-15,1.7c-19.9-32.8-55.8-54.7-97-54.7c-56.8,0-103.7,41.8-112,96.3c-6.2-1.3-12.6-1.9-19.1-1.9
	c-52.1,0-94.3,42.2-94.3,94.3c0,52.1,42.2,94.3,94.3,94.3H390z"/>
<polygon class="st1" points="139.8,443.2 129.3,432.7 129.3,417.8 139.8,407.3 154.7,407.3 165.2,417.8 165.2,432.7 154.7,443.2 "/>
<polygon class="st1" points="193.9,457.4 183.4,446.8 183.4,432 193.9,421.4 208.8,421.4 219.3,432 219.3,446.8 208.8,457.4 "/>
<polygon class="st1" points="248.1,439.4 237.6,428.9 237.6,414 248.1,403.5 263,403.5 273.5,414 273.5,428.9 263,439.4 "/>
<polygon class="st1" points="302.2,457.4 291.7,446.8 291.7,432 302.2,421.4 317.1,421.4 327.6,432 327.6,446.8 317.1,457.4 "/>
<polygon class="st1" points="356.4,439.4 345.9,428.9 345.9,414 356.4,403.5 371.3,403.5 381.8,414 381.8,428.9 371.3,439.4 "/>
</svg>
