<?xml version="1.0" encoding="utf-8"?>
<!-- Generator: Adobe Illustrator 19.1.0, SVG Export Plug-In . SVG Version: 6.00 Build 0)  -->
<svg version="1.1" id="Layer_1" xmlns="http://www.w3.org/2000/svg" xmlns:xlink="http://www.w3.org/1999/xlink" x="0px" y="0px"
	 viewBox="0 0 500 500" style="enable-background:new 0 0 500 500;" xml:space="preserve">
<style type="text/css">
	.st0{opacity:0.6;fill:none;stroke:#FFFFFF;stroke-width:2;stroke-linecap:round;stroke-linejoin:round;stroke-miterlimit:10;}
	.st1{opacity:0.6;}
	.st2{fill:#FFFFFF;}
</style>
<path class="st0" d="M308.9,388.8h82c52.4,0,94.9-42.5,94.9-94.9c0-42.5-28-78.6-66.6-90.6c-9.8-26.7-35.3-45.8-65.4-45.8
	c-5.2,0-10.3,0.6-15.1,1.7c-20-33-56.2-55.1-97.6-55.1c-57.2,0-104.4,42.1-112.8,96.9c-6.2-1.3-12.7-2-19.2-2
	c-52.4,0-94.9,42.5-94.9,94.9s42.5,94.9,94.9,94.9h68.2"/>
<g class="st1">
	<polygon class="st2" points="220,399.3 193.3,399.4 228.3,308.7 301.3,308.7 262.7,364 305.9,364.1 194.3,484.3 	"/>
	<path class="st2" d="M300.3,309.2l-38.6,55.3l43.1,0.1L195.4,482.4l25.2-83.7l-26.6,0.2l34.6-89.8H300.3 M302.2,308.2h-1.9h-71.7
		h-0.7l-0.2,0.6l-34.6,89.8l-0.5,1.4l1.5,0l25.2-0.2l-24.8,82.4l-1.2,4.1l2.9-3.2l109.4-117.8l1.6-1.7l-2.3,0l-41.2-0.1l37.5-53.7
		L302.2,308.2L302.2,308.2z"/>
</g>
</svg>
