<?xml version="1.0" encoding="utf-8"?>
<!-- Generator: Adobe Illustrator 19.1.0, SVG Export Plug-In . SVG Version: 6.00 Build 0)  -->
<svg version="1.1" id="Layer_1" xmlns="http://www.w3.org/2000/svg" xmlns:xlink="http://www.w3.org/1999/xlink" x="0px" y="0px"
	 viewBox="0 0 500 500" style="enable-background:new 0 0 500 500;" xml:space="preserve">
<style type="text/css">
	.st0{opacity:0.6;fill:none;stroke:#FFFFFF;stroke-width:4;stroke-linecap:round;stroke-miterlimit:10;}
</style>
<path class="st0" d="M388,384.9c51.4,0,93-41.6,93-93c0-41.7-27.4-76.9-65.2-88.8c-9.6-26.2-34.6-44.9-64.1-44.9
	c-5.1,0-10.1,0.6-14.8,1.7c-19.6-32.3-55-54-95.6-54c-56,0-102.3,41.2-110.4,94.9c-6.1-1.3-12.4-1.9-18.9-1.9c-51.4,0-93,41.6-93,93
	s41.6,93,93,93H388z"/>
<line class="st0" x1="184.8" y1="422.7" x2="120.9" y2="486.6"/>
<line class="st0" x1="282" y1="422.7" x2="218" y2="486.6"/>
<line class="st0" x1="379.1" y1="422.7" x2="315.2" y2="486.6"/>
</svg>
