<?xml version="1.0" encoding="utf-8"?>
<!-- Generator: Adobe Illustrator 19.1.0, SVG Export Plug-In . SVG Version: 6.00 Build 0)  -->
<svg version="1.1" id="Layer_1" xmlns="http://www.w3.org/2000/svg" xmlns:xlink="http://www.w3.org/1999/xlink" x="0px" y="0px"
	 viewBox="0 0 500 500" style="enable-background:new 0 0 500 500;" xml:space="preserve">
<style type="text/css">
	.st0{fill:none;stroke:#FFFDFE;stroke-width:4;stroke-linecap:round;stroke-miterlimit:10;}
</style>
<circle class="st0" cx="249" cy="249" r="140.8"/>
<line class="st0" x1="249" y1="428.9" x2="249" y2="493"/>
<line class="st0" x1="249" y1="5" x2="249" y2="70.7"/>
<line class="st0" x1="310.5" y1="418" x2="332.5" y2="478.3"/>
<line class="st0" x1="165.5" y1="19.7" x2="188" y2="81.4"/>
<line class="st0" x1="364.6" y1="386.8" x2="405.8" y2="435.9"/>
<line class="st0" x1="92.2" y1="62.1" x2="134.4" y2="112.4"/>
<line class="st0" x1="404.8" y1="338.9" x2="460.3" y2="371"/>
<line class="st0" x1="37.7" y1="127" x2="94.6" y2="159.8"/>
<line class="st0" x1="426.1" y1="280.2" x2="489.3" y2="291.4"/>
<line class="st0" x1="8.7" y1="206.6" x2="73.4" y2="218"/>
<line class="st0" x1="426.1" y1="217.8" x2="489.3" y2="206.6"/>
<line class="st0" x1="8.7" y1="291.4" x2="73.4" y2="280"/>
<line class="st0" x1="404.8" y1="159.1" x2="460.3" y2="127"/>
<line class="st0" x1="37.7" y1="371" x2="94.6" y2="338.2"/>
<line class="st0" x1="364.6" y1="111.2" x2="405.8" y2="62.1"/>
<line class="st0" x1="92.2" y1="435.9" x2="134.4" y2="385.6"/>
<line class="st0" x1="310.5" y1="80" x2="332.5" y2="19.7"/>
<line class="st0" x1="165.5" y1="478.3" x2="188" y2="416.6"/>
</svg>
